<?xml version="1.0" encoding="utf-8"?>
<!-- Generator: Adobe Illustrator 17.0.0, SVG Export Plug-In . SVG Version: 6.00 Build 0)  -->
<!DOCTYPE svg PUBLIC "-//W3C//DTD SVG 1.1//EN" "http://www.w3.org/Graphics/SVG/1.1/DTD/svg11.dtd">
<svg version="1.1" id="Layer_1" xmlns="http://www.w3.org/2000/svg" xmlns:xlink="http://www.w3.org/1999/xlink" x="0px" y="0px"
	 width="1400px" height="1400px" viewBox="0 0 1400 1400" enable-background="new 0 0 1400 1400" xml:space="preserve">
<rect fill-rule="evenodd" clip-rule="evenodd" fill="#526CD8" width="1400" height="1400"/>
<polygon fill-rule="evenodd" clip-rule="evenodd" fill="#FFFFFF" points="848.7,896.5 875.9,957.9 867.6,910.9 "/>
<g>
	<g>
		<path fill-rule="evenodd" clip-rule="evenodd" fill="#FFFFFF" d="M517.1,1082.1c38.4,0,69.4,31.1,69.4,69.5s-31.1,69.4-69.4,69.4
			s-69.5-31.1-69.5-69.4c0-3.6,0.3-7,0.8-10.4l57.2,37.3l-51.3-56.6C465.4,1098.4,489.4,1082.1,517.1,1082.1L517.1,1082.1z"/>
		<polygon fill-rule="evenodd" clip-rule="evenodd" fill="#FFFFFF" points="432.2,1082.1 498.3,1145.1 476,1116.1 		"/>
		<polygon fill-rule="evenodd" clip-rule="evenodd" fill="#FFFFFF" points="410.5,1035.8 464.7,1087.4 446.5,1063.7 		"/>
		<polygon fill-rule="evenodd" clip-rule="evenodd" fill="#FFFFFF" points="448.6,1163.3 505.6,1178.4 420.9,1118.4 		"/>
	</g>
	<path fill-rule="evenodd" clip-rule="evenodd" fill="#4D4D4D" d="M485.6,1076l85.8,89.5l1.2-37.7l-17.9,3.7L485.6,1076z
		 M488.7,1211.8l14.8,4.3l-2.2-3.4l-14.5-1.9L488.7,1211.8z M480.7,1134l19.7,18.2l3.1-17.3L480.7,1134z"/>
</g>
<g>
	<g>
		<polygon fill-rule="evenodd" clip-rule="evenodd" fill="#FFEE99" points="450.6,517.9 434,529.5 392.9,542.3 338.6,617.6 
			282.3,683.2 225,695 192.7,719.5 178.5,741 191.3,745.4 220.1,741.5 218.7,751.3 224.5,742.9 232.1,742.7 279.4,778.7 237.3,741 
			275.9,735.1 310.2,700.9 335.2,715 309.2,694 357.7,716.5 333.7,700.9 350.8,692.5 336.1,674.5 345.4,679.3 405.1,636.3 
			444.3,599.1 463.9,573.6 501.1,550.4 473.5,549.3 		"/>
		<polygon fill-rule="evenodd" clip-rule="evenodd" fill="#D9AD6C" points="481,549.6 453.6,562.3 394.9,516.8 437.9,560.4 
			416.9,550.1 428.6,568.2 413.9,585.4 409,606.9 361.6,647.5 365.5,632.3 352.8,621.6 321.4,661.7 296.5,690.1 273.5,713.1 
			233.3,714.1 222.1,722.9 185.4,691.6 224.5,731.2 132.5,665.1 207.4,731.2 179,751.3 260.8,727.3 256.8,744.4 282.3,724.4 
			299.9,726.8 335.6,685.2 378.7,691.1 342.5,665.6 357.7,664.7 403.7,629.4 440.4,619.1 477.6,559.9 494.8,550.1 		"/>
	</g>
	<g>
		<polygon fill-rule="evenodd" clip-rule="evenodd" fill="#FFEE99" points="933.6,418.7 975.3,400.5 1054.1,413.7 972.9,383.4 
			1044.8,401 1013,386.8 1033.6,389.2 1065.4,380.9 1158.8,337.9 1172,337.9 1188.2,339.3 1234.7,330.5 1241.6,321.2 1261.6,320.2 
			1267.5,315.3 1231.3,292.3 1262.6,302.6 1149.5,254.6 1203.4,281.5 1192.1,288.4 1163.7,279.6 1183.3,288.9 1149.5,305.6 
			1129,300.6 1156.9,316.3 1129,305.6 1051.6,318.7 995.2,326.4 1008.1,336.4 980.2,321.7 985.6,327.6 955.7,337.4 913.2,352.4 
			932.6,361.3 		"/>
		<polygon fill-rule="evenodd" clip-rule="evenodd" fill="#D9AD6C" points="933.3,403 968.5,394.6 944,369.6 1019.3,377 991,360.8 
			1043.8,364.8 1129.4,336.9 1105.5,328.1 1138.3,331.5 1163.7,327.6 1176.5,327.6 1206.8,305.6 1257.2,320.4 1168.6,345.2 
			1129.4,345.2 1044.3,381.4 1008.8,392.2 987.5,382.9 995.2,395.8 942.1,415 		"/>
	</g>
	<g>
		<polygon fill-rule="evenodd" clip-rule="evenodd" fill="#333333" points="584.1,703.9 567.1,714.7 535.8,707.8 578.9,742.7 
			547.5,728.4 554.4,735.2 540.2,736.7 431.1,832.2 526,890.9 514.7,876.7 595.5,919.8 552.9,885 574,895.3 631.7,863 633.7,863 
			676.3,858.1 687.5,910 678.7,931.5 737,971.1 826,951.6 882.3,1000.5 814.3,926.6 850,945.7 843.1,935.9 859.3,924.6 855.4,864.5 
			834.3,788.6 825.7,765.5 		"/>
		<polygon fill-rule="evenodd" clip-rule="evenodd" fill="#1A1A1A" points="623.2,713.9 706.1,778.8 615.1,737.2 702.2,795 
			642,782.2 698.3,823.8 497.6,812.1 603.3,826.8 589.6,858.1 566.2,868.8 698.8,850.7 690.4,899.2 751.6,834.6 811.3,851.7 
			847.6,921.7 817.7,840.5 884.3,879.1 842.2,846.8 819.7,782.7 857.8,796.4 814.8,775.4 813.4,762.3 		"/>
	</g>
	<g>
		<g>
			<polygon fill-rule="evenodd" clip-rule="evenodd" fill="#FF0066" points="636.9,1149.9 623.3,1159.3 607.7,1193.1 574.4,1162.7 
				607.2,1202.9 590.1,1191.6 600.4,1207.8 741.8,1207.8 738.4,1201.9 752.1,1174.5 733,1197.5 733,1183.3 725.6,1193.1 
				712.9,1183.3 697.1,1164.1 682.9,1162.1 658,1169.5 			"/>
			<polygon fill-rule="evenodd" clip-rule="evenodd" fill="#FFFFFF" points="661.5,1215.6 623.8,1165.7 654.7,1198 669.3,1186.7 
				648.3,1145.1 675.7,1179.9 695.3,1176 739.3,1213.6 			"/>
		</g>
		<g>
			<polygon fill-rule="evenodd" clip-rule="evenodd" fill="#4D4D4D" points="803.8,868.5 737.3,896.9 723.6,929.2 744.6,948.7 
				726,986.9 683.4,1035.9 680,1078.5 636.9,1149.9 658,1169.5 682.9,1162.1 697.1,1164.1 710.8,1170.9 700.6,1158.7 764.2,1084.3 
				775.9,1096.1 752.4,1055.4 781.3,1088.7 775.4,1073.6 802.8,1040.3 819.5,990.9 829.7,973.7 842.5,948.3 845.4,929.2 
				847.6,921.7 820.6,869.6 			"/>
			<path fill-rule="evenodd" clip-rule="evenodd" fill="#1A1A1A" d="M720.3,887.7l27.9,33.7l-3.9-14.7l67.5,15.2l-48,67.5l12.3,11.8
				l-20.6,32.8l-26.4-25.9v1.4l42.6,53.9l-2-10.3l49.8-62.3l15.3,7.5l-8.8-35.7l6.2-26.4l-28.3-67.7L720.3,887.7z M757.9,1151.3
				l-115.3-66.8l61.7,43.5l-9.1,11.3l-74.4-30.1l108.9,51.9l-26.4-16.1l9.1-11.3L757.9,1151.3z"/>
		</g>
	</g>
	<g>
		<g>
			<polygon fill-rule="evenodd" clip-rule="evenodd" fill="#1A1A1A" points="431.1,832.2 405.6,820.9 376.3,829.2 343,806.7 
				364.5,827.8 307.3,838.5 284.7,856.6 240.2,855.6 204.5,911.9 221.1,931.5 242.7,928.1 283.7,955 246.1,910.5 265.2,928.1 
				299.4,921.2 291.6,907.5 309.2,932.5 307.3,921.7 346.4,913.9 374.8,922.2 463.4,985.3 393.4,923.2 429.6,938.8 465.8,933.9 
				547.6,894.2 514.7,876.7 526,890.9 			"/>
			<polygon fill-rule="evenodd" clip-rule="evenodd" fill="#4D4D4D" points="434.2,834.1 403.2,862.8 386.5,909.2 428.6,932.7 
				412,914.4 477.6,958.6 435.5,921 455.8,930.5 490.3,917.1 524.8,936.6 470.5,893.8 504.5,910.5 533.1,897.2 505.7,887.2 
				503.5,877 			"/>
		</g>
		<g>
			<polygon fill-rule="evenodd" clip-rule="evenodd" fill="#FF0066" points="376.3,829.2 365.7,839.5 347.9,844.1 360.4,858.8 
				343.2,846.6 302.6,869.8 301.1,894 335.6,941.3 300.9,906.5 336.9,965.8 337.4,965 290.4,898.7 300.9,917.6 276.7,921 
				287.4,942.5 255.6,901.1 268.3,923.7 233.6,893.8 252.2,925.9 240.4,920 203.5,928.3 213.3,911.4 195.6,866.9 216,900.4 
				243.6,857.8 225,821.6 265.2,876.7 243.6,826.3 266.6,860.8 295.5,863.5 307.3,848.5 296,824.3 308.7,841.9 371.8,828.7 
				356.5,815.8 			"/>
			<path fill-rule="evenodd" clip-rule="evenodd" fill="#FFFFFF" d="M226.2,864.7l8,21.1l14.7-15.2l16.6,13.5l-19.8-21.8l-11.5,14.4
				L226.2,864.7z M319.7,848.3l21.6-5.6l-25-22.8L319.7,848.3z M285.1,875l-7.6,1.2l6.9,10.8l6.1-1L285.1,875z M219.8,917.6l18.1-2
				l-27.6-51.9L219.8,917.6z"/>
		</g>
	</g>
	<g>
		<polygon fill-rule="evenodd" clip-rule="evenodd" fill="#D9AD6C" points="672.2,217.2 582.7,232.1 635.3,244.9 598.1,262.7 
			620.3,263.2 621.1,263.2 613.5,279.1 621.1,278.4 622.8,287.4 606.9,284.5 609.3,304.3 655.6,377 643.9,397.3 696.7,407.8 
			729,372.6 727.3,346.4 730,321 739.8,315.3 746.1,295.3 744.4,284.7 734.6,281.8 727.3,241.2 		"/>
		<polygon fill-rule="evenodd" clip-rule="evenodd" fill="#FFEE99" points="643.1,255.8 657.3,266.9 649,287.7 670.3,298.7 
			638.2,289.9 669.8,331.7 675.9,325.4 678.3,306.3 684.5,313.8 684.2,337.9 668.3,333.9 663.7,341 670,349.8 655.3,348.4 
			656.1,359.1 669.1,381.6 634.8,354.2 655.8,383.6 636.5,394.4 621.1,384.3 631.6,368.9 626.7,299.7 		"/>
		<polygon fill-rule="evenodd" clip-rule="evenodd" fill="#FFEE99" points="695.2,316.3 702.1,333 717.3,352.5 722.9,311.4 
			712.6,321 		"/>
		<polygon fill-rule="evenodd" clip-rule="evenodd" fill="#1A1A1A" points="734.6,281.8 738.5,251.7 694.8,186.1 697.4,199.8 
			627.4,184.4 652.4,214.3 625.2,209.1 683.2,247.3 646.6,242.2 702.8,271.5 718.7,251.5 725.3,279.9 729.3,286.7 730.2,304.6 		"/>
	</g>
	<g>
		<path fill-rule="evenodd" clip-rule="evenodd" fill="#FF9933" d="M521.5,551.2l37.2-31.3l46,95.9L589,632.5L714.7,699l-128.6-44
			l-17.6,36.2l15.7,12.7l261.3,66.6l8.8-43.1l-111.6-79.3L866,683.4l-85.2-49l164.4,69.5l-112.6-69.5l33.3,8.8l-18.6-24.5
			l-19.6-109.6l44.1-96.9l-15.5,53l51.7-31.4l-5.9-14.7l75.4,23.5l-121.2-46.8l61.5,16.4l14.7-35.2v-15.6l-76.2-34.9l51.7,30h-44.1
			l-44-6.9l-40.1,10.8l-51.3-26.7l-1.3,12.7l28.1,20.8h-13.7l-13.6-7.7l3.8,35.1l-46.5,7.7l-48.9-7.9l-11.9-15.2L571.4,411
			l-30.6,2.7l-93.7,99.4l26.4,36.2L521.5,551.2z M606.9,284.5l-99.4-44l100.6,54L606.9,284.5z"/>
		<g>
			<polygon fill-rule="evenodd" clip-rule="evenodd" fill="#CC3300" points="533,551.2 488.9,541.9 519.8,540.5 542.8,511.1 
				487,528.7 555.5,502.3 569.2,488.6 354.4,382.9 355.8,382.9 598.6,498.4 578,493.5 604.4,530.2 644.6,565.9 587.8,540 
				587.3,569.3 636.3,616.8 610.8,618.8 629.9,645.7 591.7,607.5 565.3,564.4 583.4,577.1 570.2,563.5 560.4,533.6 533,545.3 			"/>
			<polygon fill-rule="evenodd" clip-rule="evenodd" fill="#CC3300" points="819.8,750.9 599.1,649.6 802.8,722.5 693.5,664.8 
				835.9,730.3 782.1,723.5 			"/>
			<path fill-rule="evenodd" clip-rule="evenodd" fill="#CC3300" d="M874.5,624L712,584.4c1.9-0.6,1.2-0.5,2.9-0.5L824.6,601
				l-28.9-17.1l25.9-4.9l-2.4-43.6l-23.5,6.9l47.5-92l-31.3-23.5l91,32.8l-31.3-20.1l20.5,4l39.3-63.7l4.2,77.8l-35.2-8.8l53.8,31.8
				l-90.4-19.9l41.4,43.4l-69.4,50.1L874.5,624z"/>
			<polygon fill-rule="evenodd" clip-rule="evenodd" fill="#CC3300" points="562.4,380.8 650.7,445 623.6,419.7 708.7,475.3 
				591.5,380.8 608.8,406.1 			"/>
		</g>
		<g>
			<polygon fill-rule="evenodd" clip-rule="evenodd" fill="#FFFFFF" points="682.5,475.6 699.2,500.6 692.7,500.3 723.6,539.2 
				714.9,518.8 716.5,509.5 699.5,483 			"/>
			<path fill-rule="evenodd" clip-rule="evenodd" fill="#FFFFFF" d="M722.3,485.8l23.5,37.7l-17.9-1.9l43.2,31.2l-8-17.3l2.8-15.7
				l-7.7-13.3l-13-8l11.7,23.4l-10.8-4.9c-0.8-2.3-0.3-0.9-0.3-1.2l-6.5-19.1l-9.3-7.4l24.7,6.2l-9.9-12l-13.6-6.2l6.5,9
				L722.3,485.8z"/>
		</g>
	</g>
</g>
</svg>
